<svg version="1.1" id="Layer_1" xmlns="http://www.w3.org/2000/svg" xmlns:xlink="http://www.w3.org/1999/xlink" x="0px" y="0px"
	 width="100%" viewBox="0 0 784 1024" enable-background="new 0 0 784 1024" xml:space="preserve">
<path fill="#000000" opacity="1.000000" stroke="none" 
	d="
M785.000000,436.571533 
	C774.661987,453.698822 764.174377,470.307281 754.022339,487.118408 
	C740.188110,510.027069 725.826721,532.601990 711.574768,555.248474 
	C699.796265,573.964600 688.272095,592.840576 676.576050,611.608887 
	C663.373657,632.794434 650.104858,653.938660 636.864380,675.100464 
	C636.776001,675.241699 636.677429,675.376404 636.587219,675.516479 
	C628.168213,688.604736 627.398438,688.372742 612.440308,682.865051 
	C599.506714,678.102783 586.100159,674.606934 572.854736,670.714172 
	C552.104431,664.615662 531.313721,658.654663 510.540192,652.635193 
	C507.751160,651.827026 505.047394,650.827942 503.971710,655.093689 
	C503.394653,657.382019 501.530487,659.188599 499.094940,657.733398 
	C496.411285,656.129944 498.828766,654.343750 499.638794,652.698730 
	C499.925537,652.116394 500.123230,651.490295 500.368164,650.867615 
	C498.641083,648.460571 495.936829,648.613708 493.634918,647.909424 
	C487.112000,645.913940 480.552826,644.035339 474.045593,641.990845 
	C471.455719,641.177185 469.479340,640.935974 468.965698,644.429993 
	C468.805115,645.522278 468.143799,646.636108 467.446320,647.533997 
	C466.086609,649.284302 464.235504,651.142578 462.016907,649.771057 
	C459.826660,648.417053 461.897430,646.540161 462.493713,644.955017 
	C463.071808,643.418213 463.743011,641.916382 464.466125,640.175842 
	C460.121246,637.422974 455.339752,636.629944 450.793213,635.289307 
	C436.119110,630.962341 421.410919,626.750854 406.710205,622.514465 
	C404.836273,621.974487 402.990143,621.017944 401.039246,622.579285 
	C399.838165,623.540466 398.196014,623.396057 397.606476,621.971985 
	C396.271576,618.747131 393.325409,618.607056 390.673370,617.835144 
	C370.264801,611.894714 349.933197,605.668396 329.417389,600.123901 
	C310.800354,595.092651 292.664001,588.397827 273.798370,584.268494 
	C268.892731,583.194763 266.002991,580.003784 264.563751,575.445801 
	C259.903473,560.687256 255.370407,545.888550 250.737137,531.121399 
	C247.163254,519.730774 243.512115,508.364410 239.896042,496.987030 
	C239.540771,495.869263 239.185043,494.753540 237.691437,494.001068 
	C231.098755,496.559509 225.106216,500.834442 218.864151,504.414856 
	C200.382935,515.015625 181.515640,524.893982 162.906235,535.247253 
	C147.779160,543.663147 132.612793,552.009705 117.397705,560.265015 
	C114.561470,561.803894 112.984962,564.337646 111.380814,566.787476 
	C96.795258,589.062439 82.364296,611.438660 67.776863,633.712402 
	C65.319183,637.465027 65.729668,639.534241 69.850136,641.838318 
	C81.315910,648.249695 92.251633,655.640625 103.875145,661.731689 
	C128.725052,674.753845 151.754486,690.823059 176.328903,704.285706 
	C200.853333,717.720947 224.625671,732.460876 248.934479,746.283630 
	C283.804993,766.112122 318.092987,786.962280 352.746033,807.176880 
	C381.494202,823.946899 410.791870,839.814270 439.055206,857.355835 
	C449.619385,863.912354 458.769043,864.700378 470.314941,861.593262 
	C498.087769,854.119202 526.139282,847.648315 554.184814,841.238281 
	C563.499084,839.109436 570.653564,833.735718 578.001343,828.377625 
	C596.417175,814.948303 615.332275,802.201050 633.217041,788.048889 
	C635.501038,786.241577 637.984619,786.242310 640.271667,787.073975 
	C643.839417,788.371399 647.176453,790.295715 650.635620,791.901917 
	C652.802368,792.908020 653.938660,794.630188 654.256042,796.910522 
	C654.645874,799.711975 654.932007,802.527710 655.279968,805.335205 
	C655.814819,809.650085 654.402039,812.856262 650.148376,814.491455 
	C649.688110,814.668335 649.188293,814.901062 648.865723,815.253418 
	C644.061401,820.500549 639.010010,819.733337 632.844116,817.245422 
	C627.407776,815.051819 625.126953,811.638062 624.954529,805.307068 
	C619.940125,809.612732 615.823242,813.158691 611.694519,816.690735 
	C596.776855,829.452698 581.847778,842.201355 566.946655,854.982666 
	C565.467041,856.251709 563.668518,857.351074 563.745728,859.751831 
	C563.780273,860.826538 563.148560,861.850342 562.101135,862.005493 
	C554.899780,863.072815 551.012329,869.045715 546.010742,873.153564 
	C533.540283,883.395142 521.523560,894.189331 509.324554,904.761597 
	C509.198669,904.870728 509.088715,905.034363 508.942688,905.079041 
	C504.924622,906.308289 508.223145,913.168518 503.859467,912.874390 
	C499.607544,912.587708 497.917267,915.210510 495.501160,917.177429 
	C490.109192,921.567261 485.908234,922.500061 481.376221,919.643066 
	C460.962952,906.774963 440.599487,893.827881 420.201752,880.935059 
	C398.554688,867.252502 376.863342,853.639893 355.237671,839.923706 
	C321.934723,818.801208 288.701691,797.568359 255.382645,776.471313 
	C219.788498,753.933716 184.105347,731.536743 148.504593,709.009521 
	C112.232918,686.057861 76.027115,663.002075 39.762714,640.038879 
	C31.339602,634.705261 22.521315,630.021729 14.290236,624.352966 
	C10.095479,621.463928 6.583900,618.637451 7.631727,612.768677 
	C7.938123,611.052612 7.059654,609.159607 7.060353,607.347778 
	C7.062274,602.372131 6.926228,597.633911 13.114323,595.261963 
	C17.535828,593.567139 21.149357,589.937805 25.237465,587.443909 
	C45.827938,574.883118 63.351460,558.399780 81.998840,543.387939 
	C113.493271,518.033691 144.475922,492.044830 175.782303,466.455597 
	C203.103622,444.123657 230.676025,422.098419 257.947815,399.706665 
	C280.562775,381.138428 302.831512,362.149017 325.393555,343.515625 
	C335.757660,334.956207 346.704285,327.092712 356.927063,318.374634 
	C365.284546,311.247284 373.923737,311.048248 383.903534,314.085846 
	C414.575836,323.421814 445.386383,332.304413 476.157410,341.314697 
	C508.852142,350.888245 541.560669,360.414612 574.268005,369.945038 
	C590.043945,374.541962 605.757812,379.375763 621.633545,383.599487 
	C637.369568,387.786072 652.857483,392.795227 668.590210,397.015259 
	C695.069275,404.117920 721.235291,412.382019 747.583496,419.982239 
	C756.186096,422.463654 764.714111,425.233917 773.571350,426.857300 
	C777.268127,427.534851 780.756348,429.350372 784.669678,430.824219 
	C785.000000,432.714355 785.000000,434.428711 785.000000,436.571533 
M576.130615,531.668823 
	C592.482910,506.462555 606.816101,479.966278 625.647217,455.677124 
	C622.399170,454.663696 620.071594,453.797974 617.675476,453.212372 
	C601.238953,449.195618 584.735596,445.436737 568.374573,441.135406 
	C563.660706,439.896118 561.583008,440.998260 559.604553,445.309998 
	C539.765625,488.546051 519.725342,531.689758 499.768250,574.871643 
	C495.321075,584.494080 490.977142,594.164185 486.665039,603.638062 
	C488.029572,606.026184 490.278198,605.846008 492.123169,606.260254 
	C501.690674,608.408264 511.347504,610.185120 520.850830,612.577454 
	C524.011292,613.373047 525.306091,612.445190 526.818176,610.024719 
	C535.634460,595.911377 544.597961,581.890137 553.470032,567.811523 
	C560.921875,555.986389 568.316895,544.125366 576.130615,531.668823 
M574.656067,609.147217 
	C575.203674,608.767639 575.804382,608.446045 576.291077,608.000122 
	C595.922607,590.012634 615.521790,571.989868 635.188477,554.040955 
	C638.394104,551.115356 641.587830,548.372131 643.351196,544.167542 
	C650.620361,526.835022 658.028748,509.560211 665.500244,492.313721 
	C666.871338,489.148743 666.731323,486.891052 663.913391,484.463043 
	C654.081665,475.991882 644.435181,467.305023 634.764343,458.648682 
	C632.870911,456.953888 631.271484,456.932495 629.701111,458.931702 
	C625.593140,464.161285 621.184753,469.188599 617.465027,474.681793 
	C611.403320,483.633606 605.766296,492.874359 600.000061,502.024597 
	C589.439697,518.782166 578.932739,535.573364 568.370911,552.329956 
	C560.921936,564.147949 553.403748,575.922363 545.945129,587.734253 
	C540.474915,596.397278 535.051270,605.089722 529.221191,614.383972 
	C539.994202,616.794617 549.861511,618.988159 559.718872,621.225464 
	C561.022888,621.521423 562.054810,621.102478 562.906738,620.265808 
	C566.585876,616.652466 570.975891,613.789490 574.656067,609.147217 
M396.305847,420.830505 
	C396.388245,427.488556 396.643799,434.140503 396.867279,440.794464 
	C398.096924,477.400055 398.965363,514.017639 400.102966,550.626587 
	C400.423492,560.940979 399.851288,571.274414 400.917877,581.576721 
	C401.224823,584.541992 401.872986,586.508118 405.287659,587.128601 
	C415.249603,588.938782 424.956818,591.976318 435.024292,593.353088 
	C437.481232,593.689148 438.473694,592.900940 438.609497,590.600464 
	C439.265869,579.481384 440.267944,568.369690 440.504089,557.241699 
	C440.952576,536.111084 441.585632,514.996033 442.486908,493.876526 
	C443.422882,471.942871 441.881989,449.921814 444.649750,428.035675 
	C445.065216,424.750366 443.874512,422.802307 440.231018,422.151611 
	C427.620667,419.899689 415.050842,417.417053 402.481781,414.940033 
	C398.287598,414.113495 395.944122,415.275543 396.305847,420.830505 
M481.454376,516.061035 
	C482.194550,512.656982 482.893402,509.243317 483.681519,505.850403 
	C489.205902,482.067169 491.736511,457.662750 498.520996,434.148560 
	C499.532501,430.642792 498.111481,429.639343 495.082336,429.263733 
	C491.456635,428.814117 487.856079,428.163391 484.231873,427.699707 
	C474.659760,426.475067 465.076538,425.337036 455.506622,424.095825 
	C451.753479,423.609039 449.928833,425.028778 449.700439,428.906738 
	C449.436676,433.384979 448.497009,437.837799 448.427002,442.310669 
	C448.101471,463.113953 447.664703,483.907745 446.908936,504.705048 
	C445.905090,532.328247 445.687561,559.979614 445.070038,587.617554 
	C444.886749,595.819519 444.789764,595.821655 453.019501,597.739807 
	C455.446991,598.305603 457.888763,598.811096 460.311432,599.396179 
	C462.930023,600.028442 464.308075,599.162537 464.925201,596.410828 
	C465.794189,592.536438 466.559937,588.624939 467.394073,584.754822 
	C472.258514,562.185608 476.700195,539.525330 481.454376,516.061035 
M507.159149,548.691101 
	C523.711426,512.168396 540.263733,475.645721 556.973816,438.774902 
	C554.737183,438.115417 553.506470,437.597961 552.226196,437.398834 
	C538.595642,435.278503 524.900574,433.510620 511.350311,430.968658 
	C506.299133,430.021088 504.597778,431.556488 503.333191,436.058533 
	C498.080292,454.759491 495.715485,474.047058 491.490265,492.961609 
	C485.409851,520.181152 480.192566,547.594666 474.714081,574.946899 
	C472.993652,583.536438 470.566925,592.011841 469.845917,600.693787 
	C480.350952,605.313904 481.072113,605.065369 485.484589,595.507446 
	C492.587799,580.121033 499.686462,564.732666 507.159149,548.691101 
M352.920593,560.789062 
	C353.889191,564.660461 354.945984,568.512512 355.797943,572.409424 
	C356.455902,575.419128 358.311554,577.106323 361.192963,577.519592 
	C365.637634,578.157043 369.941040,579.271362 374.270081,580.432739 
	C377.061401,581.181580 379.985016,581.537170 383.105347,580.942017 
	C386.303894,580.331970 386.997894,578.919128 386.424347,576.202637 
	C385.366119,571.190430 383.896362,566.285583 382.829315,561.260437 
	C378.271423,539.795471 373.356323,518.406433 368.588531,496.985962 
	C363.968536,476.229492 359.334290,455.476013 354.806244,434.699463 
	C354.252045,432.156769 353.343719,431.279572 350.737335,432.155457 
	C342.701721,434.855774 334.626221,437.438416 326.552948,440.025330 
	C322.513245,441.319794 321.305939,443.490509 322.557739,447.906342 
	C327.626038,465.785370 332.324310,483.769623 337.120514,501.725372 
	C342.309906,521.153076 347.456238,540.592285 352.920593,560.789062 
M396.098816,570.408325 
	C395.349243,545.819885 394.585815,521.231873 393.853943,496.642883 
	C393.106842,471.541992 392.356812,446.441040 391.701935,421.337677 
	C391.615784,418.036530 390.792114,416.666718 387.252838,417.926147 
	C379.587189,420.653931 371.833405,423.132874 364.147980,425.806549 
	C359.979401,427.256744 358.192963,429.888611 359.269592,434.609772 
	C362.959961,450.791992 366.174042,467.084045 369.953674,483.244385 
	C375.089172,505.202087 379.385162,527.341125 384.980652,549.211060 
	C387.639862,559.604553 389.191711,570.338440 392.144257,580.724792 
	C392.656708,582.527405 392.878967,584.395874 395.867096,584.004150 
	C397.460114,579.871155 395.510010,575.557190 396.098816,570.408325 
M433.965790,416.382141 
	C436.332947,416.598450 438.700073,416.814758 442.294891,417.143250 
	C439.016510,413.618744 436.587555,411.179718 434.351624,408.575043 
	C421.803650,393.957611 409.295959,379.305603 396.795502,364.647491 
	C395.633667,363.285126 394.139374,362.719360 392.472717,362.396240 
	C378.936890,359.771637 365.401794,357.143494 351.866913,354.514038 
	C350.335144,354.216461 348.885864,354.361359 347.557617,355.250305 
	C342.625427,358.551300 338.148590,362.376343 333.799896,366.756714 
	C334.809448,367.633972 335.490936,368.352905 336.289551,368.901215 
	C349.600037,378.039673 362.657257,387.589111 376.366608,396.085846 
	C382.683685,400.000977 387.990204,405.599274 395.189117,408.015137 
	C407.531036,412.156830 420.525055,413.349457 433.965790,416.382141 
M336.865997,519.424866 
	C334.127960,509.165100 331.408936,498.900208 328.647186,488.646851 
	C325.061615,475.334900 321.391632,462.045380 317.873779,448.715668 
	C317.031769,445.524994 315.532867,444.789398 312.437744,445.911438 
	C306.510132,448.060272 300.540680,450.154938 294.461884,451.805389 
	C289.818420,453.066162 288.698669,454.809601 290.860535,459.504456 
	C295.443176,469.456451 299.374634,479.708252 303.576080,489.835846 
	C314.134613,515.287231 324.663361,540.751160 335.278503,566.178894 
	C337.645691,571.849182 344.563690,575.107666 351.531006,573.851868 
	C346.713928,555.947937 341.905640,538.076782 336.865997,519.424866 
M611.027710,432.451965 
	C618.203247,438.246094 624.490051,444.907288 632.523621,449.954285 
	C639.321472,454.224945 644.784973,461.068451 651.084534,466.499084 
	C656.951477,471.556824 662.375916,477.176880 669.494019,481.743622 
	C671.528564,477.299438 673.083496,473.082977 675.308655,469.256317 
	C677.909180,464.784149 676.544800,461.982117 673.129089,458.560394 
	C657.028625,442.431671 641.168701,426.060883 625.363403,409.641296 
	C622.984680,407.170135 620.325745,405.837830 617.124451,405.547424 
	C604.993347,404.446777 593.187805,401.695099 581.403442,398.787781 
	C579.542969,398.328766 577.565979,397.636414 575.127014,399.771637 
	C587.019653,410.595367 598.764404,421.284454 611.027710,432.451965 
M376.676147,417.063751 
	C380.775818,415.544830 385.136078,414.655731 389.112244,412.417847 
	C387.558929,409.605103 384.834320,409.199829 382.854248,407.790253 
	C368.635986,397.668304 354.359741,387.626892 340.040405,377.648132 
	C327.161194,368.672974 328.610535,369.355133 318.314484,378.218658 
	C317.937531,378.543152 317.467804,378.761536 317.098572,379.093140 
	C311.242065,384.353882 304.441498,388.527008 298.890900,394.311066 
	C299.581360,394.949860 299.888336,395.393524 300.311279,395.602142 
	C316.864166,403.767487 333.386871,411.996155 350.017944,419.999573 
	C354.247986,422.035278 358.853973,422.934967 363.592224,421.350769 
	C367.695435,419.978851 371.821960,418.676666 376.676147,417.063751 
M517.460693,388.997101 
	C515.088623,386.217834 512.115845,384.822144 508.465424,384.172913 
	C497.350525,382.195953 486.319885,379.739166 475.194550,377.829987 
	C471.325775,377.166077 467.349365,375.459045 462.930206,377.033203 
	C463.515594,378.135834 463.760315,378.980072 464.296417,379.550415 
	C477.408630,393.500092 490.525513,407.457703 504.615265,420.426025 
	C506.904999,422.533539 507.855469,426.052399 512.262695,426.455200 
	C521.678650,427.315765 530.977600,429.381866 540.367859,430.626770 
	C545.836121,431.351715 551.250977,433.200378 558.540344,432.279205 
	C544.389771,417.384247 531.160889,403.459534 517.460693,388.997101 
M435.697052,400.836761 
	C439.127411,403.573303 441.133087,407.505219 443.990723,410.708588 
	C446.899323,413.969055 449.823120,417.752075 454.280212,418.570801 
	C463.416321,420.249115 472.638824,421.716461 481.890198,422.406189 
	C487.030060,422.789398 492.100342,424.318481 497.178619,424.265808 
	C497.753357,422.059784 496.597015,421.162720 495.718292,420.248108 
	C481.444458,405.391602 467.125397,390.578491 452.868225,375.706055 
	C451.151001,373.914764 449.113770,372.823334 446.777588,372.634735 
	C436.146179,371.776703 426.107819,367.947876 415.600494,366.564178 
	C413.323669,366.264374 410.819489,364.993317 408.673462,366.578735 
	C408.294708,368.032501 408.876465,368.867004 409.545105,369.607635 
	C418.493256,379.519836 429.259155,387.910461 435.697052,400.836761 
M605.183655,433.324280 
	C593.548889,422.621002 581.877136,411.957642 570.298218,401.194244 
	C565.853760,397.062805 561.318604,393.525116 554.849426,393.022858 
	C550.569336,392.690521 546.372864,391.345886 542.123718,390.534393 
	C536.193726,389.401855 530.249390,388.343933 524.181030,387.230194 
	C524.040039,389.769928 525.396484,390.655304 526.392944,391.676147 
	C537.671997,403.230530 548.833923,414.902039 560.715393,425.854279 
	C562.519348,427.517181 564.910217,429.035034 565.110229,431.715118 
	C565.352173,434.959106 567.499756,435.875031 569.981506,436.524109 
	C576.253967,438.164520 582.535339,439.776947 588.842224,441.278381 
	C599.091553,443.718353 609.363953,446.060852 619.626648,448.444489 
	C619.781311,448.118042 619.935974,447.791595 620.090698,447.465149 
	C615.299194,442.905853 610.507629,438.346558 605.183655,433.324280 
M317.337982,537.081970 
	C307.735870,513.883545 298.202576,490.656311 288.503723,467.498383 
	C283.325165,455.133575 286.267914,455.125366 271.680878,461.286072 
	C268.361053,462.688202 267.547150,464.615936 269.324799,467.923828 
	C272.147034,473.175537 274.615204,478.616058 277.345795,483.918701 
	C290.980652,510.396790 304.020813,537.186462 319.114471,562.900146 
	C321.575165,567.092163 324.719910,568.426819 330.182922,567.996704 
	C325.867432,557.591309 321.759369,547.686035 317.337982,537.081970 
M290.039093,400.634888 
	C286.417206,403.850311 281.818756,406.012848 278.826843,410.621918 
	C289.504944,416.551147 299.636902,422.596832 310.150360,427.883759 
	C318.750824,432.208710 318.952515,431.807617 321.861267,436.905457 
	C331.216187,433.486786 341.290222,431.848297 351.600739,426.746521 
	C347.113861,424.601868 343.850555,423.085480 340.624878,421.492828 
	C326.022827,414.282990 311.421204,407.072144 296.846985,399.806335 
	C294.602722,398.687469 292.541016,397.942627 290.039093,400.634888 
M290.461426,423.155304 
	C289.314911,422.479248 288.172882,421.795410 287.021210,421.128265 
	C273.276550,413.166473 273.276154,413.167145 261.120819,423.438873 
	C257.276031,426.687836 257.393799,428.046417 261.381653,430.962524 
	C269.687622,437.036224 279.240692,441.180298 287.236420,447.736542 
	C287.788483,448.189240 288.834290,448.373566 289.560486,448.229401 
	C298.356995,446.483337 306.781494,443.639435 315.491425,439.699554 
	C308.548523,431.626495 299.509766,428.040100 290.461426,423.155304 
M306.172272,559.387512 
	C308.584259,562.131897 309.178345,567.076416 314.444519,566.535645 
	C315.103149,564.761414 313.907684,563.804565 313.309265,562.708313 
	C309.728149,556.147583 305.885254,549.722229 302.499115,543.063843 
	C291.523041,521.480774 280.773010,499.782837 269.800690,478.197845 
	C264.442841,467.657806 262.440430,467.515625 254.060272,476.427765 
	C253.863022,476.637512 253.871017,477.040192 253.588043,478.048889 
	C270.810028,504.697021 288.289093,531.742981 306.172272,559.387512 
M101.686058,574.223450 
	C103.022438,571.863892 104.358810,569.504333 106.096664,566.435974 
	C101.597748,568.834961 98.052513,571.074524 94.240807,572.682251 
	C87.162514,575.667908 82.475883,580.970337 78.357681,587.203247 
	C70.109856,599.686218 61.737389,612.094849 53.072464,624.289795 
	C50.166172,628.380127 51.192474,630.630554 54.866493,633.022461 
	C60.330582,636.579834 61.403210,636.540833 64.508255,631.744446 
	C76.785141,612.780518 89.039757,593.802185 101.686058,574.223450 
M595.587402,597.096375 
	C586.651123,605.401428 577.714844,613.706421 568.703369,622.081299 
	C571.134460,624.451416 573.917053,623.719482 576.160400,624.682739 
	C580.754395,626.655518 584.157166,625.216431 587.641724,621.720520 
	C597.959778,611.368774 608.627625,601.365967 619.138245,591.205627 
	C625.116760,585.426331 633.103699,570.099854 634.759827,561.150818 
	C621.750977,573.077332 608.920471,584.840332 595.587402,597.096375 
M647.734924,426.753937 
	C658.195801,437.022552 667.948425,448.027100 679.542786,458.434235 
	C681.741028,453.050568 683.063721,448.341400 685.477844,444.281189 
	C688.321350,439.498901 686.820862,437.503387 682.361206,435.229401 
	C669.634827,428.740234 657.120483,421.851837 646.140259,412.513306 
	C641.925903,408.929047 636.713623,408.671661 630.091858,408.268036 
	C636.513855,415.002716 641.877869,420.627899 647.734924,426.753937 
M518.539490,853.739319 
	C499.065582,858.419922 479.591675,863.100586 459.680115,867.886353 
	C463.259888,872.644897 467.783020,872.038818 472.165558,871.352844 
	C485.768677,869.223633 499.283478,866.315247 512.955811,864.898743 
	C529.048950,863.231384 541.935547,857.783508 553.245117,845.925232 
	C541.729431,847.633911 530.600586,851.062134 518.539490,853.739319 
M300.242859,561.739075 
	C302.907043,560.417603 300.743958,559.036743 300.105469,557.992432 
	C297.157928,553.171204 293.995514,548.482117 290.981995,543.700317 
	C284.694916,533.724121 277.840881,524.121033 271.970612,513.861450 
	C268.586395,507.946838 264.289001,502.554749 260.402649,496.927460 
	C259.451385,498.139069 259.254730,498.853546 259.479797,499.391693 
	C267.678253,518.994202 275.912659,538.581665 284.154175,558.166199 
	C284.853149,559.827148 286.184631,560.363892 287.925476,560.926086 
	C291.842285,562.190918 295.859253,559.656677 300.242859,561.739075 
M265.802002,439.730682 
	C262.221100,437.315338 258.640747,434.899200 255.059036,432.485046 
	C253.425415,431.383942 251.799652,430.872345 250.056427,432.332062 
	C246.753830,435.097443 243.429810,437.837677 240.091492,440.559937 
	C236.725037,443.305084 238.025452,445.274414 241.161362,446.839355 
	C247.088760,449.797394 253.333054,452.231140 258.933777,455.707458 
	C267.539764,461.049133 273.412811,455.125122 280.639130,451.964783 
	C276.225464,446.838013 271.233154,443.578217 265.802002,439.730682 
M219.967728,456.454773 
	C218.443893,458.407593 217.655945,460.221191 220.654419,461.616425 
	C228.503098,465.268494 236.317230,468.995178 244.180939,472.614319 
	C245.999420,473.451233 247.948120,474.053589 249.908890,472.797058 
	C253.969971,470.194550 257.949493,467.515656 260.282043,462.746216 
	C255.269638,458.560699 249.295135,456.368958 243.747681,453.458252 
	C231.087662,446.815582 231.069565,446.850067 219.967728,456.454773 
M204.617920,496.530609 
	C213.124207,497.186279 219.188889,491.945709 226.567871,488.267426 
	C225.146515,487.184082 224.565170,486.525024 223.835663,486.217987 
	C215.744431,482.812439 207.638641,479.440826 199.510025,476.125671 
	C198.638107,475.770050 197.356766,475.390625 196.672562,475.765503 
	C191.364532,478.673706 186.248428,481.872498 182.274231,487.209259 
	C189.599915,491.175507 196.734665,493.788696 204.617920,496.530609 
M50.985844,620.516418 
	C59.062527,608.371582 67.955826,596.757263 75.045029,583.866638 
	C67.449806,587.070984 59.374519,589.713806 54.850147,596.779602 
	C50.009991,604.338623 44.673351,611.530273 39.741444,619.008301 
	C38.943798,620.217712 37.640293,621.228699 38.163200,622.945251 
	C45.073200,628.059143 45.221645,628.036072 50.985844,620.516418 
M235.312042,474.319000 
	C229.027222,471.323700 222.770691,468.267029 216.448654,465.352478 
	C211.327148,462.991364 207.343063,464.210083 204.306152,468.844727 
	C202.831085,471.095795 202.990402,472.816681 205.732086,473.957306 
	C212.926895,476.950714 220.026260,480.185577 227.290924,482.995148 
	C233.113113,485.246887 238.403809,483.589233 242.328537,478.828033 
	C241.266251,475.845215 238.199905,475.893158 235.312042,474.319000 
M181.274765,507.076019 
	C187.665756,508.776520 196.982224,505.545563 200.233154,500.498260 
	C200.040863,500.233795 199.906601,499.840271 199.647720,499.723877 
	C194.674515,497.488159 189.650085,495.363373 184.710571,493.056488 
	C177.626312,489.747955 174.787109,490.260803 169.654099,496.197327 
	C167.331421,498.883636 167.343140,501.329163 170.895752,502.905579 
	C174.068405,504.313324 177.328018,505.525085 181.274765,507.076019 
M693.379883,425.048431 
	C693.469849,423.604523 694.653931,422.292023 693.640381,420.102814 
	C681.454651,418.112488 669.193909,414.458557 656.283447,413.894531 
	C666.059143,422.575317 677.897278,427.394501 689.022217,433.524445 
	C691.188965,431.033478 692.121460,428.370270 693.379883,425.048431 
M605.587158,611.095764 
	C600.573120,616.475281 594.144165,620.475647 589.597778,626.910278 
	C593.753357,629.299072 597.944702,629.344299 601.958069,630.146484 
	C604.763428,630.707153 606.408813,629.800781 607.483398,627.287048 
	C611.628906,617.590027 615.807617,607.907166 619.973938,598.219055 
	C619.378662,597.715576 618.783447,597.212097 618.188171,596.708618 
	C614.160217,601.344421 610.132263,605.980225 605.587158,611.095764 
M158.970978,504.597656 
	C155.848114,506.983521 152.636200,509.269958 149.997559,512.294739 
	C161.811600,520.142334 170.134094,520.520325 178.397293,511.190063 
	C174.342194,507.835999 168.996475,507.319977 164.643097,504.820984 
	C163.141785,503.959167 161.418533,502.913025 158.970978,504.597656 
M508.466797,874.782166 
	C512.989197,874.257507 517.716736,874.155823 521.007996,868.309509 
	C504.144592,869.664673 488.646179,872.993835 472.990234,875.937134 
	C475.277924,877.681580 477.098694,879.783447 480.128632,879.290833 
	C489.287781,877.801453 498.455414,876.364258 508.466797,874.782166 
M44.269909,606.753784 
	C46.074505,603.871216 47.879101,600.988647 49.982113,597.629456 
	C39.302914,601.182312 35.597382,610.208374 30.735786,618.123962 
	C32.762573,620.821350 34.395992,620.484558 36.022785,618.193604 
	C38.607124,614.554199 41.245384,610.953064 44.269909,606.753784 
M141.510849,524.306396 
	C151.542191,527.172363 153.177017,526.957153 158.282928,521.958801 
	C154.386856,520.337830 150.584717,518.719971 146.754196,517.172485 
	C143.039444,515.671753 141.260834,518.762695 139.293152,520.734863 
	C137.592041,522.439819 139.702515,523.180847 141.510849,524.306396 
M487.099121,884.836975 
	C489.641296,885.884949 492.008118,887.164307 493.155151,890.200745 
	C497.759857,886.289185 503.042633,884.200012 506.531219,879.457458 
	C499.918915,879.972656 493.476349,880.966675 487.045685,882.032410 
	C484.890015,882.389771 485.119049,883.385010 487.099121,884.836975 
M127.351624,529.616638 
	C125.474373,531.262024 125.366394,532.499084 128.033447,533.422974 
	C133.468536,535.305847 137.960037,533.965088 142.107620,529.528625 
	C137.143936,527.702393 132.661804,524.179321 127.351624,529.616638 
M112.515038,541.559326 
	C110.647980,544.094421 113.446373,544.367554 114.174515,543.919556 
	C117.553810,541.840210 121.921310,541.559021 124.870544,538.430908 
	C122.055328,535.578613 119.523697,534.845398 116.734344,537.965271 
	C115.649628,539.178528 114.258812,540.118042 112.515038,541.559326 
M26.423840,615.452881 
	C28.530180,614.105225 29.794283,612.272766 30.168407,609.587097 
	C27.079037,609.603943 25.874207,611.833008 24.413048,613.376648 
	C23.072096,614.793396 24.806778,615.124695 26.423840,615.452881 
z"/>
<path fill="#000000" opacity="1.000000" stroke="none" 
	d="
M656.411377,786.178345 
	C656.527039,785.598694 656.593933,785.423340 656.560547,785.269897 
	C654.299255,774.871338 661.714722,771.500183 669.047485,768.072327 
	C669.346191,767.932678 669.663086,767.808655 669.984863,767.745178 
	C673.414917,767.068787 684.329407,775.213379 684.196045,778.658325 
	C684.094055,781.295349 685.217712,783.694214 684.595642,786.500244 
	C682.277710,796.955872 673.762207,801.179871 664.333679,795.807251 
	C660.771362,793.777283 655.310364,792.827515 656.411377,786.178345 
z"/>
<path fill="#000000" opacity="1.000000" stroke="none" 
	d="
M631.185791,836.372070 
	C636.030090,843.211914 640.285645,850.050903 645.065063,856.501709 
	C648.326843,860.904114 648.934143,864.518677 645.757935,869.465637 
	C641.913025,875.454102 639.043518,882.097778 636.071411,888.603882 
	C634.845032,891.288391 633.256226,892.388062 630.387573,892.330872 
	C624.228577,892.208130 618.051514,892.010925 611.909363,892.346924 
	C607.456970,892.590515 604.242554,890.832275 601.402222,887.792908 
	C595.551636,881.532532 591.959717,873.720520 587.020508,866.833069 
	C586.109497,865.562744 586.697021,864.408813 587.365723,863.143738 
	C591.253479,855.788696 595.152954,848.435486 598.805908,840.963074 
	C600.068298,838.380859 601.434143,837.505920 604.479614,837.478455 
	C613.262878,837.399231 622.040466,836.676086 631.185791,836.372070 
M628.523438,841.641663 
	C621.961914,838.790222 615.121643,840.811096 608.415405,840.529541 
	C604.886169,840.381287 602.556458,842.319519 601.011597,845.426453 
	C598.197632,851.085388 595.319092,856.712952 592.405457,862.321350 
	C591.418213,864.221741 591.026489,866.054443 592.220947,867.981018 
	C595.199524,872.785278 598.051941,877.674133 601.197083,882.366821 
	C604.372559,887.104736 608.648621,889.615112 614.714844,888.740723 
	C619.139832,888.102844 623.661194,888.129761 628.140320,887.872742 
	C630.231140,887.752686 632.019836,887.217957 633.069824,885.130920 
	C636.208008,878.893433 639.383484,872.674072 642.605408,866.479492 
	C643.964294,863.866821 643.655884,861.520508 642.334961,858.927490 
	C639.023926,852.427551 633.800049,847.511475 628.523438,841.641663 
z"/>
<path fill="#000000" opacity="1.000000" stroke="none" 
	d="
M132.848373,607.891846 
	C126.078300,613.126709 118.813774,613.559998 112.738365,609.341858 
	C106.715309,605.160095 104.128708,597.445007 106.199791,589.839111 
	C108.229759,582.384277 113.472496,578.550476 121.331169,577.654968 
	C131.631851,576.481140 142.277390,585.190552 138.257736,597.537537 
	C137.065628,601.199341 135.882004,604.800537 132.848373,607.891846 
M111.181282,588.883118 
	C108.767395,592.796875 108.990845,596.711121 111.108910,600.668030 
	C114.145561,606.341187 119.957222,609.085205 125.617355,607.465515 
	C131.053925,605.909729 135.091171,599.091614 134.828217,591.910095 
	C134.632874,586.574768 131.090088,582.734436 125.112984,581.648743 
	C119.039307,580.545471 115.144516,584.104736 111.181282,588.883118 
z"/>
<path fill="#000000" opacity="1.000000" stroke="none" 
	d="
M97.869415,650.045898 
	C90.624565,649.027649 85.893105,645.900757 83.986237,638.668701 
	C83.094078,635.285156 83.655067,632.813599 85.620918,630.397461 
	C90.402336,624.520874 96.844902,622.986328 104.137543,625.825623 
	C105.341873,626.294495 105.923607,627.184814 106.301285,628.365295 
	C107.312737,631.526794 108.029259,634.796143 109.789886,637.688293 
	C110.447853,638.769043 110.348785,639.988708 109.598106,640.992798 
	C107.408981,643.921021 105.201866,646.839050 102.900162,649.678650 
	C101.585045,651.301086 99.843208,650.445740 97.869415,650.045898 
M104.379280,639.839355 
	C105.046509,636.643250 103.600525,633.888672 102.001305,631.476379 
	C100.080734,628.579163 96.659218,627.417358 93.758415,629.249084 
	C90.892517,631.058899 87.320610,633.392639 88.809906,637.924377 
	C90.023506,641.617249 91.704842,644.840393 96.324982,645.519165 
	C100.647430,646.154114 102.034767,643.001282 104.379280,639.839355 
z"/>
<path fill="#000000" opacity="1.000000" stroke="none" 
	d="
M127.799698,626.287903 
	C128.963196,621.488037 131.767166,619.085815 136.297791,618.728516 
	C140.826447,618.371399 143.381256,621.372681 145.376205,624.632874 
	C147.654510,628.356201 146.355637,632.009521 143.858093,635.240845 
	C140.261414,639.894287 133.714249,639.588684 130.302414,634.610657 
	C128.679184,632.242249 127.493195,629.693298 127.799698,626.287903 
M138.301773,623.492798 
	C135.071869,622.575623 132.508759,623.195374 132.276733,627.000366 
	C132.079727,630.230957 132.855789,633.633484 136.485550,634.486084 
	C139.831253,635.272034 141.497314,632.648254 142.331207,629.774231 
	C143.222580,626.702087 140.587967,625.503967 138.301773,623.492798 
z"/>
</svg>