<?xml version="1.0" encoding="UTF-8"?>
<svg id="Layer_3" data-name="Layer 3" xmlns="http://www.w3.org/2000/svg" viewBox="0 0 1080 1440">
  <polygon points="126.78 492.34 187.16 288.42 785.52 182.43 126.78 492.34"/>
  <polygon points="876.75 735.17 568.17 303.17 827.11 308.54 876.75 735.17"/>
  <polygon points="244.84 465.51 400.47 1211.45 102.63 794.2 244.84 465.51"/>
  <polygon points="400.47 1136.32 707.7 987.4 599.03 810.3 400.47 1136.32"/>
  <polygon points="694.29 695.37 355.3 677.48 829.34 867.1 694.29 695.37"/>
  <polygon points="809.66 888.57 779.25 1166.73 1005.54 1000.37 809.66 888.57"/>
  <polygon points="261.24 427.8 191.03 489.66 283.3 451.5 261.24 427.8"/>
  <polygon points="559.08 283.78 537.84 334.65 617.89 282.32 559.08 283.78"/>
  <polygon points="378.52 1139.69 417.13 1155.94 391.34 1104.81 378.52 1139.69"/>
  <polygon points="539.89 834.55 620.68 765.38 615.61 814.27 539.89 834.55"/>
  <polygon points="846.6 857.35 770.12 885.98 784.66 925.78 846.6 857.35"/>
  <polygon points="775.53 667.89 813.69 810.3 854.24 692.63 775.53 667.89"/>
</svg>