<?xml version="1.0" encoding="UTF-8"?>
<svg id="Layer_3" data-name="Layer 3" xmlns="http://www.w3.org/2000/svg" viewBox="0 0 1080 1440">
  <g>
    <polygon points="216.72 285.98 210.05 309.58 255.64 296.99 170.53 272.93 155.94 324.53 210.05 309.58 216.72 285.98"/>
    <polygon points="132.12 585.26 179.51 417.62 125.4 432.56 96.72 534.03 113.38 528.52 132.12 585.26"/>
    <polygon points="132.12 585.26 139.46 607.52 173.02 617 233.62 402.67 179.51 417.62 132.12 585.26"/>
    <polygon points="67.8 398.68 140.67 378.55 155.94 324.53 55.02 352.41 80.58 444.95 125.4 432.56 140.67 378.55 67.8 398.68"/>
    <polygon points="248.89 348.65 514.56 275.25 248.89 348.65 233.62 402.67 527.34 321.52 509.84 258.16 468.82 238.09 255.64 296.99 262.91 299.04 248.89 348.65"/>
    <polygon points="969.37 429.54 990.46 386.42 909.13 346.63 916.57 403.71 969.37 429.54"/>
    <polygon points="509.84 258.16 820.6 410.19 813.16 353.12 346.86 124.99 325.76 168.11 468.82 238.09 501.78 228.98 509.84 258.16"/>
    <polygon points="924 460.78 948.27 472.65 969.37 429.54 916.57 403.71 924 460.78"/>
    <polygon points="805.72 296.04 367.95 81.87 346.86 124.99 813.16 353.12 805.72 296.04"/>
    <polygon points="501.78 228.98 468.82 238.09 509.84 258.16 501.78 228.98"/>
    <polygon points="918.39 789.09 897.02 625.18 844.22 591.43 870.79 795.29 939.41 786.35 952.33 750.15 962.17 753.66 949.83 658.94 897.02 625.18 918.39 789.09"/>
    <polygon points="848.62 253.79 857.43 321.34 909.13 346.63 896.22 247.58 801.02 259.99 805.72 296.04 857.43 321.34 848.62 253.79"/>
    <polygon points="872.3 435.49 820.6 410.19 828.02 467.13 880.83 500.89 872.3 435.49"/>
    <polygon points="880.83 500.89 933.63 534.65 924 460.78 872.3 435.49 880.83 500.89"/>
    <polygon points="96.72 534.03 67.8 543.57 81.93 586.35 96.72 534.03"/>
    <polygon points="83.71 591.76 80.64 590.89 81.93 586.35 67.8 543.57 22.22 558.62 116.44 843.98 143.44 772.66 83.71 591.76"/>
    <polygon points="143.44 772.66 170.45 701.35 139.46 607.52 83.71 591.76 143.44 772.66"/>
    <polygon points="262.7 980.75 218.26 846.17 191.26 917.49 255.63 1112.42 191.26 917.49 164.26 988.81 210.05 1127.47 301.21 1097.37 279.01 1030.14 248.95 1019.46 262.7 980.75"/>
    <polygon points="80.64 590.89 83.71 591.76 81.93 586.35 80.64 590.89"/>
    <polygon points="83.71 591.76 139.46 607.52 132.12 585.26 126.83 603.95 132.12 585.26 113.38 528.52 96.72 534.03 81.93 586.35 83.71 591.76"/>
    <polygon points="281.09 929 262.7 980.75 279.01 1030.14 717.17 1185.82 733.24 1140.59 265.02 974.23 733.24 1140.59 749.31 1095.36 281.09 929"/>
    <polygon points="576.79 776.32 542.25 732.66 423.52 826.57 453.29 864.22 572.03 770.31 453.29 864.22 483.07 901.87 582.74 823.03 559.17 788.27 576.79 776.32"/>
    <polygon points="795.72 920.28 804.8 897.09 655.77 838.75 613.05 867.72 592.81 837.87 583.37 861.96 753.57 928.59 766.6 904.52 795.72 920.28"/>
    <polygon points="804.8 897.09 822.29 852.39 703.96 806.07 655.77 838.75 804.8 897.09"/>
    <polygon points="600.87 817.26 600.87 817.26 600.87 817.26 618.37 772.57 649.74 784.85 702.83 748.84 675.89 709.11 576.79 776.32 601.8 807.95 582.74 823.03 586.11 828 600.48 818.25 600.87 817.26"/>
    <polygon points="586.11 828 592.81 837.87 600.48 818.25 586.11 828"/>
    <polygon points="703.96 806.07 729.77 788.57 702.83 748.84 649.74 784.85 703.96 806.07"/>
    <polygon points="576.79 776.32 559.17 788.27 582.74 823.03 601.8 807.95 576.79 776.32"/>
    <polygon points="600.48 818.25 601.55 817.53 600.87 817.26 600.48 818.25"/>
    <polygon points="888.04 1067.95 928.94 992.39 795.72 920.28 787.3 941.79 753.57 928.59 743.75 946.73 906.09 1034.61 743.75 946.73 720.9 988.94 841.54 1054.25 877.99 1040.78 888.04 1067.95"/>
    <polygon points="795.72 920.28 766.6 904.52 753.57 928.59 787.3 941.79 795.72 920.28"/>
    <polygon points="936.59 1199.37 888.04 1067.95 883.24 1076.82 841.54 1054.25 787.94 1074.05 861.06 1271.94 906.09 1255.3 832.97 1057.41 906.09 1255.3 921.46 1249.62 906.17 1237.39 936.59 1199.37"/>
    <polygon points="983.98 1140.12 936.59 1199.37 951.11 1238.66 921.46 1249.62 943.65 1267.38 1021.47 1170.11 983.98 1140.12"/>
    <rect x="939.02" y="1209.73" width="124.56" height="48" transform="translate(-587.59 1244.91) rotate(-51.34)"/>
    <polygon points="936.59 1199.37 906.17 1237.39 921.46 1249.62 951.11 1238.66 936.59 1199.37"/>
    <polygon points="939.41 786.35 887.94 930.6 978.35 962.86 1042.75 782.42 997.54 766.28 933.14 946.73 997.54 766.28 962.17 753.66 965.98 782.89 939.41 786.35"/>
    <polygon points="939.41 786.35 965.98 782.89 962.17 753.66 952.33 750.15 939.41 786.35"/>
    <polygon points="100 1022.98 140.35 916.39 116.44 843.98 55.11 1005.98 144.89 1039.97 164.26 988.81 140.35 916.39 100 1022.98"/>
    <polygon points="223.43 696.97 194.36 773.76 218.26 846.17 268.32 713.96 178.54 679.97 170.45 701.35 194.36 773.76 223.43 696.97"/>
    <polygon points="828.02 467.13 769.61 429.79 743.75 470.23 836.12 529.28 828.02 467.13"/>
    <polygon points="743.75 470.23 717.9 510.67 844.22 591.43 836.12 529.28 743.75 470.23"/>
    <polygon points="1021.47 647.77 1047.32 607.32 933.63 534.65 941.73 596.79 1021.47 647.77"/>
    <polygon points="949.83 658.94 995.61 688.21 1021.47 647.77 941.73 596.79 949.83 658.94"/>
  </g>
  <polygon points="212.19 692.71 247.22 705.97 224.58 722.09 196.18 709.24 212.19 692.71"/>
</svg>