<?xml version="1.0" encoding="UTF-8"?>
<svg id="Layer_3" data-name="Layer 3" xmlns="http://www.w3.org/2000/svg" viewBox="0 0 1080 1440">
  <defs>
    <style>
      .cls-1 {
        fill: none;
      }
    </style>
  </defs>
  <polygon class="cls-1" points="809.67 861.33 774.82 861.33 774.82 798.45 738.45 798.45 738.45 765.95 683.46 765.95 683.46 773.4 643 773.4 643 833.3 589.97 833.3 589.97 870.05 638.83 870.05 638.83 1003 600.58 1003 600.58 1071.18 646.98 1071.18 646.98 1113.61 721.79 1113.61 721.79 1051.48 815.73 1051.48 815.73 1025.73 844.52 1025.73 844.52 928.76 809.67 928.76 809.67 861.33"/>
  <polygon class="cls-1" points="371.79 393.91 371.79 378.76 288.45 378.76 288.45 336.33 226.33 336.33 226.33 366.64 250.58 366.64 250.58 449.97 203.61 449.97 203.61 496.36 226.33 496.36 226.33 581.2 212.18 581.2 212.18 624.95 253.1 624.95 253.1 588.93 309.45 588.93 309.45 562.09 384.58 562.09 384.58 604.21 426.33 604.21 426.33 528.76 452.09 528.76 452.09 393.91 371.79 393.91"/>
  <polygon points="203.61 496.36 203.61 449.97 167.24 449.97 167.24 427.24 109.67 427.24 109.67 521.18 141.48 521.18 141.48 496.36 203.61 496.36"/>
  <polygon points="203.61 449.97 250.58 449.97 250.58 366.64 226.33 366.64 226.33 378.76 167.24 378.76 167.24 427.24 203.61 427.24 203.61 449.97"/>
  <rect x="167.24" y="427.24" width="36.36" height="22.73"/>
  <polygon points="226.33 366.64 226.33 336.33 208.91 336.33 208.91 293.91 141.48 293.91 141.48 378.76 167.24 378.76 167.24 366.64 226.33 366.64"/>
  <polygon points="226.33 336.33 288.45 336.33 288.45 274.21 305.88 274.21 305.88 239.36 208.91 239.36 208.91 293.91 226.33 293.91 226.33 336.33"/>
  <rect x="208.91" y="293.91" width="17.42" height="42.42"/>
  <polygon points="288.45 336.33 288.45 378.76 371.79 378.76 371.79 274.21 305.88 274.21 305.88 336.33 288.45 336.33"/>
  <polygon points="393 378.76 371.79 378.76 371.79 393.91 452.09 393.91 452.09 378.76 552.09 378.76 552.09 213.61 371.79 213.61 371.79 274.21 393 274.21 393 378.76"/>
  <rect x="371.79" y="274.21" width="21.21" height="104.55"/>
  <polygon points="452.09 393.91 452.09 528.76 585.42 528.76 585.42 548.45 621.79 548.45 621.79 378.76 552.09 378.76 552.09 393.91 452.09 393.91"/>
  <polygon points="585.42 640.88 585.42 548.45 452.09 548.45 452.09 528.76 426.33 528.76 426.33 604.21 445.12 604.21 445.12 677.54 426.33 677.54 426.33 687.85 491.48 687.85 491.48 640.88 585.42 640.88"/>
  <polygon points="608.15 727.24 608.15 640.88 585.42 640.88 585.42 687.85 491.48 687.85 491.48 727.24 505.88 727.24 505.88 757.55 536.94 757.55 536.94 727.24 608.15 727.24"/>
  <polygon points="589.97 833.3 643 833.3 643 773.4 624.73 773.4 624.73 727.24 608.15 727.24 608.15 757.55 536.94 757.55 536.94 818.15 589.97 818.15 589.97 833.3"/>
  <polygon points="589.97 833.3 536.94 833.3 536.94 818.15 515.73 818.15 515.73 870.05 589.97 870.05 589.97 833.3"/>
  <polygon points="600.58 1003 638.83 1003 638.83 870.05 589.97 870.05 589.97 892.39 515.73 892.39 515.73 870.05 505.88 870.05 505.88 972.7 600.58 972.7 600.58 1003"/>
  <polygon points="491.48 727.24 438.45 727.24 438.45 768.15 452.09 768.15 452.09 794.67 505.88 794.67 505.88 757.55 491.48 757.55 491.48 727.24"/>
  <polygon points="438.45 768.15 340.73 768.15 340.73 794.67 371.79 794.67 371.79 879.52 452.09 879.52 452.09 794.67 438.45 794.67 438.45 768.15"/>
  <polygon points="340.73 794.67 257.39 794.67 257.39 909.06 371.79 909.06 371.79 879.52 340.73 879.52 340.73 794.67"/>
  <polygon points="600.58 1071.18 600.58 1003 505.88 1003 505.88 972.7 472.17 972.7 472.17 1101.11 536.37 1101.11 536.37 1071.18 600.58 1071.18"/>
  <polygon points="646.98 1113.61 646.98 1071.18 600.58 1071.18 600.58 1101.11 536.37 1101.11 536.37 1181.79 621.79 1181.79 621.79 1113.61 646.98 1113.61"/>
  <rect x="536.37" y="1071.18" width="64.2" height="29.92"/>
  <polygon points="721.79 1113.61 646.98 1113.61 646.98 1181.79 621.79 1181.79 621.79 1230.27 738.45 1230.27 738.45 1157.55 721.79 1157.55 721.79 1113.61"/>
  <rect x="621.79" y="1113.61" width="25.19" height="68.18"/>
  <polygon points="815.73 1051.48 721.79 1051.48 721.79 1113.61 738.45 1113.61 738.45 1157.55 827.85 1157.55 827.85 1106.03 815.73 1106.03 815.73 1051.48"/>
  <polygon points="844.52 1025.73 815.73 1025.73 815.73 1051.48 827.85 1051.48 827.85 1106.03 896.03 1106.03 896.03 1051.48 844.52 1051.48 844.52 1025.73"/>
  <rect x="815.73" y="1051.48" width="12.12" height="54.55"/>
  <polygon points="1003.61 892.39 914.59 892.39 914.59 928.76 844.52 928.76 844.52 1025.73 896.03 1025.73 896.03 1051.48 1003.61 1051.48 1003.61 892.39"/>
  <polygon points="809.67 861.33 809.67 928.76 844.52 928.76 844.52 892.39 914.59 892.39 914.59 823.83 855.88 823.83 855.88 861.33 809.67 861.33"/>
  <rect x="844.52" y="892.39" width="70.08" height="36.36"/>
  <polygon points="774.82 798.45 774.82 861.33 809.67 861.33 809.67 823.83 855.88 823.83 855.88 780.27 827.85 780.27 827.85 798.45 774.82 798.45"/>
  <polygon points="738.45 765.95 738.45 798.45 774.82 798.45 774.82 780.27 827.85 780.27 827.85 709.06 752.03 709.06 752.03 765.95 738.45 765.95"/>
  <rect x="774.82" y="780.27" width="53.03" height="18.18"/>
  <polygon points="643 773.4 683.46 773.4 683.46 765.95 666.17 765.95 666.17 714.67 624.73 714.67 624.73 727.24 643 727.24 643 773.4"/>
  <polygon points="683.46 765.95 738.45 765.95 738.45 709.06 752.03 709.06 752.03 680.08 666.17 680.08 666.17 714.67 683.46 714.67 683.46 765.95"/>
  <polygon points="212.18 581.2 226.33 581.2 226.33 496.36 203.61 496.36 203.61 521.18 141.48 521.18 141.48 556.06 212.18 556.06 212.18 581.2"/>
  <rect x="141.48" y="496.36" width="62.12" height="24.83"/>
  <polygon points="212.18 624.95 212.18 581.2 141.48 581.2 141.48 556.06 83.38 556.06 83.38 684.85 194.74 684.85 194.74 624.95 212.18 624.95"/>
  <polygon points="253.1 624.95 212.18 624.95 212.18 684.85 194.74 684.85 194.74 699.21 269 699.21 269 673.45 253.1 673.45 253.1 624.95"/>
  <rect x="194.74" y="624.95" width="17.44" height="59.9"/>
  <polygon points="309.45 588.93 253.1 588.93 253.1 624.95 269 624.95 269 673.45 337.62 673.45 337.62 637.23 309.45 637.23 309.45 588.93"/>
  <polygon points="384.58 604.21 384.58 562.09 309.45 562.09 309.45 588.93 337.62 588.93 337.62 637.23 371.79 637.23 371.79 604.21 384.58 604.21"/>
  <rect x="309.45" y="588.93" width="28.17" height="48.3"/>
  <polygon points="384.58 604.21 384.58 637.23 371.79 637.23 371.79 677.54 426.33 677.54 426.33 604.21 384.58 604.21"/>
  <rect x="371.79" y="604.21" width="12.79" height="33.01"/>
</svg>